<svg viewBox="0 0 472.16 213.764" xmlns="http://www.w3.org/2000/svg" xmlns:xlink="http://www.w3.org/1999/xlink" width="472.159912" height="213.764160" fill="none" customFrame="#000000">
	<g id="Group 8">
		<circle id="Ellipse 1" cx="3.52358127" cy="3.52358127" r="3.52358127" fill="rgb(112,194,23)" transform="matrix(-4.37114e-08,-1,1,-4.37114e-08,0,213.764)" />
		<circle id="Ellipse 1" cx="3.52358127" cy="3.52358127" r="3.52358127" fill="rgb(112,194,23)" transform="matrix(-4.37114e-08,-1,1,-4.37114e-08,0,162.085)" />
		<circle id="Ellipse 1" cx="3.52358127" cy="3.52358127" r="3.52358127" fill="rgb(112,194,23)" transform="matrix(-4.37114e-08,-1,1,-4.37114e-08,0,110.406)" />
		<circle id="Ellipse 1" cx="3.52358127" cy="3.52358127" r="3.52358127" fill="rgb(112,194,23)" transform="matrix(-4.37114e-08,-1,1,-4.37114e-08,0,58.7266)" />
		<circle id="Ellipse 1" cx="3.52358127" cy="3.52358127" r="3.52358127" fill="rgb(112,194,23)" transform="matrix(-4.37114e-08,-1,1,-4.37114e-08,0,7.04736)" />
		<circle id="Ellipse 1" cx="3.52358127" cy="3.52358127" r="3.52358127" fill="rgb(112,194,23)" transform="matrix(-4.37114e-08,-1,1,-4.37114e-08,51.6792,213.764)" />
		<circle id="Ellipse 1" cx="3.52358127" cy="3.52358127" r="3.52358127" fill="rgb(112,194,23)" transform="matrix(-4.37114e-08,-1,1,-4.37114e-08,51.6792,162.085)" />
		<circle id="Ellipse 1" cx="3.52358127" cy="3.52358127" r="3.52358127" fill="rgb(112,194,23)" transform="matrix(-4.37114e-08,-1,1,-4.37114e-08,51.6792,110.406)" />
		<circle id="Ellipse 1" cx="3.52358127" cy="3.52358127" r="3.52358127" fill="rgb(112,194,23)" transform="matrix(-4.37114e-08,-1,1,-4.37114e-08,51.6792,58.7266)" />
		<circle id="Ellipse 1" cx="3.52358127" cy="3.52358127" r="3.52358127" fill="rgb(112,194,23)" transform="matrix(-4.37114e-08,-1,1,-4.37114e-08,51.6792,7.04736)" />
		<circle id="Ellipse 1" cx="3.52358127" cy="3.52358127" r="3.52358127" fill="rgb(112,194,23)" transform="matrix(-4.37114e-08,-1,1,-4.37114e-08,103.358,213.764)" />
		<circle id="Ellipse 1" cx="3.52358127" cy="3.52358127" r="3.52358127" fill="rgb(112,194,23)" transform="matrix(-4.37114e-08,-1,1,-4.37114e-08,103.358,162.085)" />
		<circle id="Ellipse 1" cx="3.52358127" cy="3.52358127" r="3.52358127" fill="rgb(112,194,23)" transform="matrix(-4.37114e-08,-1,1,-4.37114e-08,103.358,110.406)" />
		<circle id="Ellipse 1" cx="3.52358127" cy="3.52358127" r="3.52358127" fill="rgb(112,194,23)" transform="matrix(-4.37114e-08,-1,1,-4.37114e-08,103.358,58.7266)" />
		<circle id="Ellipse 1" cx="3.52358127" cy="3.52358127" r="3.52358127" fill="rgb(112,194,23)" transform="matrix(-4.37114e-08,-1,1,-4.37114e-08,103.358,7.04736)" />
		<circle id="Ellipse 1" cx="3.52358127" cy="3.52358127" r="3.52358127" fill="rgb(112,194,23)" transform="matrix(-4.37114e-08,-1,1,-4.37114e-08,155.038,213.764)" />
		<circle id="Ellipse 1" cx="3.52358127" cy="3.52358127" r="3.52358127" fill="rgb(112,194,23)" transform="matrix(-4.37114e-08,-1,1,-4.37114e-08,155.038,162.085)" />
		<circle id="Ellipse 1" cx="3.52358127" cy="3.52358127" r="3.52358127" fill="rgb(112,194,23)" transform="matrix(-4.37114e-08,-1,1,-4.37114e-08,155.038,110.406)" />
		<circle id="Ellipse 1" cx="3.52358127" cy="3.52358127" r="3.52358127" fill="rgb(112,194,23)" transform="matrix(-4.37114e-08,-1,1,-4.37114e-08,155.038,58.7266)" />
		<circle id="Ellipse 1" cx="3.52358127" cy="3.52358127" r="3.52358127" fill="rgb(112,194,23)" transform="matrix(-4.37114e-08,-1,1,-4.37114e-08,155.038,7.04736)" />
		<circle id="Ellipse 1" cx="3.52358127" cy="3.52358127" r="3.52358127" fill="rgb(112,194,23)" transform="matrix(-4.37114e-08,-1,1,-4.37114e-08,206.717,213.764)" />
		<circle id="Ellipse 1" cx="3.52358127" cy="3.52358127" r="3.52358127" fill="rgb(112,194,23)" transform="matrix(-4.37114e-08,-1,1,-4.37114e-08,206.717,162.085)" />
		<circle id="Ellipse 1" cx="3.52358127" cy="3.52358127" r="3.52358127" fill="rgb(112,194,23)" transform="matrix(-4.37114e-08,-1,1,-4.37114e-08,206.717,110.406)" />
		<circle id="Ellipse 1" cx="3.52358127" cy="3.52358127" r="3.52358127" fill="rgb(112,194,23)" transform="matrix(-4.37114e-08,-1,1,-4.37114e-08,206.717,58.7266)" />
		<circle id="Ellipse 1" cx="3.52358127" cy="3.52358127" r="3.52358127" fill="rgb(112,194,23)" transform="matrix(-4.37114e-08,-1,1,-4.37114e-08,206.717,7.04736)" />
		<circle id="Ellipse 1" cx="3.52358127" cy="3.52358127" r="3.52358127" fill="rgb(112,194,23)" transform="matrix(-4.37114e-08,-1,1,-4.37114e-08,258.396,213.764)" />
		<circle id="Ellipse 1" cx="3.52358127" cy="3.52358127" r="3.52358127" fill="rgb(112,194,23)" transform="matrix(-4.37114e-08,-1,1,-4.37114e-08,258.396,162.085)" />
		<circle id="Ellipse 1" cx="3.52358127" cy="3.52358127" r="3.52358127" fill="rgb(112,194,23)" transform="matrix(-4.37114e-08,-1,1,-4.37114e-08,258.396,110.406)" />
		<circle id="Ellipse 1" cx="3.52358127" cy="3.52358127" r="3.52358127" fill="rgb(112,194,23)" transform="matrix(-4.37114e-08,-1,1,-4.37114e-08,258.396,58.7266)" />
		<circle id="Ellipse 1" cx="3.52358127" cy="3.52358127" r="3.52358127" fill="rgb(112,194,23)" transform="matrix(-4.37114e-08,-1,1,-4.37114e-08,258.396,7.04736)" />
		<circle id="Ellipse 1" cx="3.52358127" cy="3.52358127" r="3.52358127" fill="rgb(112,194,23)" transform="matrix(-4.37114e-08,-1,1,-4.37114e-08,310.075,213.764)" />
		<circle id="Ellipse 1" cx="3.52358127" cy="3.52358127" r="3.52358127" fill="rgb(112,194,23)" transform="matrix(-4.37114e-08,-1,1,-4.37114e-08,310.075,162.085)" />
		<circle id="Ellipse 1" cx="3.52358127" cy="3.52358127" r="3.52358127" fill="rgb(112,194,23)" transform="matrix(-4.37114e-08,-1,1,-4.37114e-08,310.075,110.406)" />
		<circle id="Ellipse 1" cx="3.52358127" cy="3.52358127" r="3.52358127" fill="rgb(112,194,23)" transform="matrix(-4.37114e-08,-1,1,-4.37114e-08,310.075,58.7266)" />
		<circle id="Ellipse 1" cx="3.52358127" cy="3.52358127" r="3.52358127" fill="rgb(112,194,23)" transform="matrix(-4.37114e-08,-1,1,-4.37114e-08,310.075,7.04736)" />
		<circle id="Ellipse 1" cx="3.52358127" cy="3.52358127" r="3.52358127" fill="rgb(112,194,23)" transform="matrix(-4.37114e-08,-1,1,-4.37114e-08,361.754,213.764)" />
		<circle id="Ellipse 1" cx="3.52358127" cy="3.52358127" r="3.52358127" fill="rgb(112,194,23)" transform="matrix(-4.37114e-08,-1,1,-4.37114e-08,361.754,162.085)" />
		<circle id="Ellipse 1" cx="3.52358127" cy="3.52358127" r="3.52358127" fill="rgb(112,194,23)" transform="matrix(-4.37114e-08,-1,1,-4.37114e-08,361.754,110.406)" />
		<circle id="Ellipse 1" cx="3.52358127" cy="3.52358127" r="3.52358127" fill="rgb(112,194,23)" transform="matrix(-4.37114e-08,-1,1,-4.37114e-08,361.754,58.7266)" />
		<circle id="Ellipse 1" cx="3.52358127" cy="3.52358127" r="3.52358127" fill="rgb(112,194,23)" transform="matrix(-4.37114e-08,-1,1,-4.37114e-08,361.754,7.04736)" />
		<circle id="Ellipse 1" cx="3.52358127" cy="3.52358127" r="3.52358127" fill="rgb(112,194,23)" transform="matrix(-4.37114e-08,-1,1,-4.37114e-08,413.434,213.764)" />
		<circle id="Ellipse 1" cx="3.52358127" cy="3.52358127" r="3.52358127" fill="rgb(112,194,23)" transform="matrix(-4.37114e-08,-1,1,-4.37114e-08,413.434,162.085)" />
		<circle id="Ellipse 1" cx="3.52358127" cy="3.52358127" r="3.52358127" fill="rgb(112,194,23)" transform="matrix(-4.37114e-08,-1,1,-4.37114e-08,413.434,110.406)" />
		<circle id="Ellipse 1" cx="3.52358127" cy="3.52358127" r="3.52358127" fill="rgb(112,194,23)" transform="matrix(-4.37114e-08,-1,1,-4.37114e-08,413.434,58.7266)" />
		<circle id="Ellipse 1" cx="3.52358127" cy="3.52358127" r="3.52358127" fill="rgb(112,194,23)" transform="matrix(-4.37114e-08,-1,1,-4.37114e-08,413.434,7.04736)" />
		<circle id="Ellipse 1" cx="3.52358127" cy="3.52358127" r="3.52358127" fill="rgb(112,194,23)" transform="matrix(-4.37114e-08,-1,1,-4.37114e-08,465.113,213.764)" />
		<circle id="Ellipse 1" cx="3.52358127" cy="3.52358127" r="3.52358127" fill="rgb(112,194,23)" transform="matrix(-4.37114e-08,-1,1,-4.37114e-08,465.113,162.085)" />
		<circle id="Ellipse 1" cx="3.52358127" cy="3.52358127" r="3.52358127" fill="rgb(112,194,23)" transform="matrix(-4.37114e-08,-1,1,-4.37114e-08,465.113,110.406)" />
		<circle id="Ellipse 1" cx="3.52358127" cy="3.52358127" r="3.52358127" fill="rgb(112,194,23)" transform="matrix(-4.37114e-08,-1,1,-4.37114e-08,465.113,58.7266)" />
		<circle id="Ellipse 1" cx="3.52358127" cy="3.52358127" r="3.52358127" fill="rgb(112,194,23)" transform="matrix(-4.37114e-08,-1,1,-4.37114e-08,465.113,7.04736)" />
	</g>
</svg>
