<svg viewBox="0 0 213.764 472.16" xmlns="http://www.w3.org/2000/svg" xmlns:xlink="http://www.w3.org/1999/xlink" width="213.764160" height="472.160156" fill="none" customFrame="#000000">
	<g id="Group 7">
		<circle id="Ellipse 1" cx="3.52358127" cy="3.52358127" r="3.52358127" fill="rgb(112,194,23)" transform="matrix(-1,-8.74228e-08,8.74228e-08,-1,213.764,472.16)" />
		<circle id="Ellipse 1" cx="3.52358127" cy="3.52358127" r="3.52358127" fill="rgb(112,194,23)" transform="matrix(-1,-8.74228e-08,8.74228e-08,-1,162.085,472.16)" />
		<circle id="Ellipse 1" cx="3.52358127" cy="3.52358127" r="3.52358127" fill="rgb(112,194,23)" transform="matrix(-1,-8.74228e-08,8.74228e-08,-1,110.406,472.16)" />
		<circle id="Ellipse 1" cx="3.52358127" cy="3.52358127" r="3.52358127" fill="rgb(112,194,23)" transform="matrix(-1,-8.74228e-08,8.74228e-08,-1,58.7266,472.16)" />
		<circle id="Ellipse 1" cx="3.52358127" cy="3.52358127" r="3.52358127" fill="rgb(112,194,23)" transform="matrix(-1,-8.74228e-08,8.74228e-08,-1,7.04736,472.16)" />
		<circle id="Ellipse 1" cx="3.52358127" cy="3.52358127" r="3.52358127" fill="rgb(112,194,23)" transform="matrix(-1,-8.74228e-08,8.74228e-08,-1,213.764,420.48)" />
		<circle id="Ellipse 1" cx="3.52358127" cy="3.52358127" r="3.52358127" fill="rgb(112,194,23)" transform="matrix(-1,-8.74228e-08,8.74228e-08,-1,162.085,420.48)" />
		<circle id="Ellipse 1" cx="3.52358127" cy="3.52358127" r="3.52358127" fill="rgb(112,194,23)" transform="matrix(-1,-8.74228e-08,8.74228e-08,-1,110.406,420.48)" />
		<circle id="Ellipse 1" cx="3.52358127" cy="3.52358127" r="3.52358127" fill="rgb(112,194,23)" transform="matrix(-1,-8.74228e-08,8.74228e-08,-1,58.7266,420.48)" />
		<circle id="Ellipse 1" cx="3.52358127" cy="3.52358127" r="3.52358127" fill="rgb(112,194,23)" transform="matrix(-1,-8.74228e-08,8.74228e-08,-1,7.04736,420.48)" />
		<circle id="Ellipse 1" cx="3.52358127" cy="3.52358127" r="3.52358127" fill="rgb(112,194,23)" transform="matrix(-1,-8.74228e-08,8.74228e-08,-1,213.764,368.802)" />
		<circle id="Ellipse 1" cx="3.52358127" cy="3.52358127" r="3.52358127" fill="rgb(112,194,23)" transform="matrix(-1,-8.74228e-08,8.74228e-08,-1,162.085,368.802)" />
		<circle id="Ellipse 1" cx="3.52358127" cy="3.52358127" r="3.52358127" fill="rgb(112,194,23)" transform="matrix(-1,-8.74228e-08,8.74228e-08,-1,110.406,368.802)" />
		<circle id="Ellipse 1" cx="3.52358127" cy="3.52358127" r="3.52358127" fill="rgb(112,194,23)" transform="matrix(-1,-8.74228e-08,8.74228e-08,-1,58.7266,368.802)" />
		<circle id="Ellipse 1" cx="3.52358127" cy="3.52358127" r="3.52358127" fill="rgb(112,194,23)" transform="matrix(-1,-8.74228e-08,8.74228e-08,-1,7.04736,368.802)" />
		<circle id="Ellipse 1" cx="3.52358127" cy="3.52358127" r="3.52358127" fill="rgb(112,194,23)" transform="matrix(-1,-8.74228e-08,8.74228e-08,-1,213.764,317.122)" />
		<circle id="Ellipse 1" cx="3.52358127" cy="3.52358127" r="3.52358127" fill="rgb(112,194,23)" transform="matrix(-1,-8.74228e-08,8.74228e-08,-1,162.085,317.122)" />
		<circle id="Ellipse 1" cx="3.52358127" cy="3.52358127" r="3.52358127" fill="rgb(112,194,23)" transform="matrix(-1,-8.74228e-08,8.74228e-08,-1,110.406,317.122)" />
		<circle id="Ellipse 1" cx="3.52358127" cy="3.52358127" r="3.52358127" fill="rgb(112,194,23)" transform="matrix(-1,-8.74228e-08,8.74228e-08,-1,58.7266,317.122)" />
		<circle id="Ellipse 1" cx="3.52358127" cy="3.52358127" r="3.52358127" fill="rgb(112,194,23)" transform="matrix(-1,-8.74228e-08,8.74228e-08,-1,7.04736,317.122)" />
		<circle id="Ellipse 1" cx="3.52358127" cy="3.52358127" r="3.52358127" fill="rgb(112,194,23)" transform="matrix(-1,-8.74228e-08,8.74228e-08,-1,213.764,265.443)" />
		<circle id="Ellipse 1" cx="3.52358127" cy="3.52358127" r="3.52358127" fill="rgb(112,194,23)" transform="matrix(-1,-8.74228e-08,8.74228e-08,-1,162.085,265.443)" />
		<circle id="Ellipse 1" cx="3.52358127" cy="3.52358127" r="3.52358127" fill="rgb(112,194,23)" transform="matrix(-1,-8.74228e-08,8.74228e-08,-1,110.406,265.443)" />
		<circle id="Ellipse 1" cx="3.52358127" cy="3.52358127" r="3.52358127" fill="rgb(112,194,23)" transform="matrix(-1,-8.74228e-08,8.74228e-08,-1,58.7266,265.443)" />
		<circle id="Ellipse 1" cx="3.52358127" cy="3.52358127" r="3.52358127" fill="rgb(112,194,23)" transform="matrix(-1,-8.74228e-08,8.74228e-08,-1,7.04736,265.443)" />
		<circle id="Ellipse 1" cx="3.52358127" cy="3.52358127" r="3.52358127" fill="rgb(112,194,23)" transform="matrix(-1,-8.74228e-08,8.74228e-08,-1,213.764,213.764)" />
		<circle id="Ellipse 1" cx="3.52358127" cy="3.52358127" r="3.52358127" fill="rgb(112,194,23)" transform="matrix(-1,-8.74228e-08,8.74228e-08,-1,162.085,213.764)" />
		<circle id="Ellipse 1" cx="3.52358127" cy="3.52358127" r="3.52358127" fill="rgb(112,194,23)" transform="matrix(-1,-8.74228e-08,8.74228e-08,-1,110.406,213.764)" />
		<circle id="Ellipse 1" cx="3.52358127" cy="3.52358127" r="3.52358127" fill="rgb(112,194,23)" transform="matrix(-1,-8.74228e-08,8.74228e-08,-1,58.7266,213.764)" />
		<circle id="Ellipse 1" cx="3.52358127" cy="3.52358127" r="3.52358127" fill="rgb(112,194,23)" transform="matrix(-1,-8.74228e-08,8.74228e-08,-1,7.04736,213.764)" />
		<circle id="Ellipse 1" cx="3.52358127" cy="3.52358127" r="3.52358127" fill="rgb(112,194,23)" transform="matrix(-1,-8.74228e-08,8.74228e-08,-1,213.764,162.085)" />
		<circle id="Ellipse 1" cx="3.52358127" cy="3.52358127" r="3.52358127" fill="rgb(112,194,23)" transform="matrix(-1,-8.74228e-08,8.74228e-08,-1,162.085,162.085)" />
		<circle id="Ellipse 1" cx="3.52358127" cy="3.52358127" r="3.52358127" fill="rgb(112,194,23)" transform="matrix(-1,-8.74228e-08,8.74228e-08,-1,110.406,162.085)" />
		<circle id="Ellipse 1" cx="3.52358127" cy="3.52358127" r="3.52358127" fill="rgb(112,194,23)" transform="matrix(-1,-8.74228e-08,8.74228e-08,-1,58.7266,162.085)" />
		<circle id="Ellipse 1" cx="3.52358127" cy="3.52358127" r="3.52358127" fill="rgb(112,194,23)" transform="matrix(-1,-8.74228e-08,8.74228e-08,-1,7.04736,162.085)" />
		<circle id="Ellipse 1" cx="3.52358127" cy="3.52358127" r="3.52358127" fill="rgb(112,194,23)" transform="matrix(-1,-8.74228e-08,8.74228e-08,-1,213.764,110.405)" />
		<circle id="Ellipse 1" cx="3.52358127" cy="3.52358127" r="3.52358127" fill="rgb(112,194,23)" transform="matrix(-1,-8.74228e-08,8.74228e-08,-1,162.085,110.405)" />
		<circle id="Ellipse 1" cx="3.52358127" cy="3.52358127" r="3.52358127" fill="rgb(112,194,23)" transform="matrix(-1,-8.74228e-08,8.74228e-08,-1,110.406,110.405)" />
		<circle id="Ellipse 1" cx="3.52358127" cy="3.52358127" r="3.52358127" fill="rgb(112,194,23)" transform="matrix(-1,-8.74228e-08,8.74228e-08,-1,58.7266,110.405)" />
		<circle id="Ellipse 1" cx="3.52358127" cy="3.52358127" r="3.52358127" fill="rgb(112,194,23)" transform="matrix(-1,-8.74228e-08,8.74228e-08,-1,7.04736,110.405)" />
		<circle id="Ellipse 1" cx="3.52358127" cy="3.52358127" r="3.52358127" fill="rgb(112,194,23)" transform="matrix(-1,-8.74228e-08,8.74228e-08,-1,213.764,58.7266)" />
		<circle id="Ellipse 1" cx="3.52358127" cy="3.52358127" r="3.52358127" fill="rgb(112,194,23)" transform="matrix(-1,-8.74228e-08,8.74228e-08,-1,162.085,58.7266)" />
		<circle id="Ellipse 1" cx="3.52358127" cy="3.52358127" r="3.52358127" fill="rgb(112,194,23)" transform="matrix(-1,-8.74228e-08,8.74228e-08,-1,110.406,58.7266)" />
		<circle id="Ellipse 1" cx="3.52358127" cy="3.52358127" r="3.52358127" fill="rgb(112,194,23)" transform="matrix(-1,-8.74228e-08,8.74228e-08,-1,58.7266,58.7266)" />
		<circle id="Ellipse 1" cx="3.52358127" cy="3.52358127" r="3.52358127" fill="rgb(112,194,23)" transform="matrix(-1,-8.74228e-08,8.74228e-08,-1,7.04736,58.7266)" />
		<circle id="Ellipse 1" cx="3.52358127" cy="3.52358127" r="3.52358127" fill="rgb(112,194,23)" transform="matrix(-1,-8.74228e-08,8.74228e-08,-1,213.764,7.04688)" />
		<circle id="Ellipse 1" cx="3.52358127" cy="3.52358127" r="3.52358127" fill="rgb(112,194,23)" transform="matrix(-1,-8.74228e-08,8.74228e-08,-1,162.085,7.04688)" />
		<circle id="Ellipse 1" cx="3.52358127" cy="3.52358127" r="3.52358127" fill="rgb(112,194,23)" transform="matrix(-1,-8.74228e-08,8.74228e-08,-1,110.406,7.04688)" />
		<circle id="Ellipse 1" cx="3.52358127" cy="3.52358127" r="3.52358127" fill="rgb(112,194,23)" transform="matrix(-1,-8.74228e-08,8.74228e-08,-1,58.7266,7.04688)" />
		<circle id="Ellipse 1" cx="3.52358127" cy="3.52358127" r="3.52358127" fill="rgb(112,194,23)" transform="matrix(-1,-8.74228e-08,8.74228e-08,-1,7.04736,7.04688)" />
	</g>
</svg>
