<svg width="19" height="15" viewBox="0 0 19 15" fill="none" xmlns="http://www.w3.org/2000/svg">
<path d="M9.5 0.75C3.25 0.75 0.75 7.20905 0.75 7.20905C0.75 7.20905 3.25 13.6667 9.5 13.6667C15.75 13.6667 18.25 7.20905 18.25 7.20905C18.25 7.20905 15.75 0.75 9.5 0.75V0.75Z" stroke="#1A1A1A" stroke-width="1.5" stroke-linecap="round" stroke-linejoin="round"/>
<path d="M9.5 10.334C10.3288 10.334 11.1237 10.0047 11.7097 9.41869C12.2958 8.83264 12.625 8.03779 12.625 7.20898C12.625 6.38018 12.2958 5.58533 11.7097 4.99928C11.1237 4.41322 10.3288 4.08398 9.5 4.08398C8.6712 4.08398 7.87634 4.41322 7.29029 4.99928C6.70424 5.58533 6.375 6.38018 6.375 7.20898C6.375 8.03779 6.70424 8.83264 7.29029 9.41869C7.87634 10.0047 8.6712 10.334 9.5 10.334V10.334Z" stroke="#1A1A1A" stroke-width="1.5" stroke-linecap="round" stroke-linejoin="round"/>
</svg>
